<svg width="16" height="16" viewBox="0 0 16 16" fill="none" xmlns="http://www.w3.org/2000/svg">
<circle cx="8" cy="8" r="6" stroke="#636670"/>
<g clip-path="url(#clip0_1_453)">
<path d="M9.27605 10.4144L9.19001 10.7661C8.93189 10.868 8.7257 10.9456 8.57216 10.9989C8.41846 11.0523 8.23987 11.0789 8.03638 11.0789C7.7239 11.0789 7.48084 11.0024 7.30749 10.8503C7.13414 10.6977 7.04744 10.5043 7.04744 10.2696C7.04744 10.1787 7.05373 10.0853 7.06681 9.99011C7.08 9.8948 7.10097 9.78745 7.12967 9.66747L7.45226 8.52571C7.48095 8.41638 7.50535 8.31279 7.52489 8.21482C7.5447 8.11747 7.55425 8.0279 7.55425 7.94726C7.55425 7.80145 7.52406 7.69946 7.46396 7.64212C7.40385 7.58494 7.28917 7.55591 7.11891 7.55591C7.03552 7.55591 6.94981 7.56927 6.86244 7.5951C6.77469 7.62104 6.69969 7.64609 6.63672 7.66938L6.72298 7.31738C6.9343 7.23134 7.1363 7.15767 7.32951 7.09652C7.52273 7.0352 7.7053 7.00451 7.87799 7.00451C8.18832 7.00451 8.42779 7.07952 8.59595 7.22952C8.76411 7.37964 8.84817 7.57424 8.84817 7.81404C8.84817 7.86365 8.84265 7.95107 8.83078 8.07602C8.81919 8.20125 8.79761 8.31599 8.76616 8.42035L8.44495 9.55753C8.41863 9.64887 8.39495 9.75329 8.37436 9.87079C8.35312 9.98751 8.34296 10.0767 8.34296 10.1365C8.34296 10.2875 8.37663 10.3906 8.44412 10.4454C8.51212 10.5002 8.62923 10.5275 8.79557 10.5275C8.87367 10.5275 8.96252 10.5136 9.06126 10.4864C9.15971 10.4592 9.23152 10.4353 9.27605 10.4144ZM9.35751 5.64017C9.35751 5.8383 9.28284 6.00751 9.13278 6.14665C8.98311 6.28628 8.80275 6.35615 8.59176 6.35615C8.3801 6.35615 8.1993 6.28628 8.04792 6.14665C7.89681 6.00746 7.82109 5.8383 7.82109 5.64017C7.82109 5.44243 7.89681 5.27294 8.04792 5.13204C8.19903 4.99136 8.38016 4.92105 8.59176 4.92105C8.80269 4.92105 8.98311 4.99153 9.13278 5.13204C9.28295 5.27294 9.35751 5.44248 9.35751 5.64017Z" fill="#636670"/>
</g>
<defs>
<clipPath id="clip0_1_453">
<rect width="6.15789" height="6.15789" fill="white" transform="translate(4.91797 4.92105)"/>
</clipPath>
</defs>
</svg>
